<svg xmlns="http://www.w3.org/2000/svg" width="2286" height="1270" viewBox="0 0 2286 1270" version="1.1"><path d="M 2101.340 293.058 C 2099.602 294.171, 2095.581 298.551, 2092.403 302.791 C 2083.980 314.030, 2064.318 333.765, 2050.270 345.081 C 2000.306 385.331, 1885.486 444.370, 1780 484.050 C 1739.072 499.446, 1695.149 514.022, 1649.242 527.443 C 1638.650 530.540, 1626.332 534.614, 1621.868 536.496 C 1605.803 543.272, 1589.157 554.806, 1577.635 567.147 C 1573.859 571.191, 1569.392 575.979, 1567.709 577.786 C 1566.026 579.593, 1565.290 580.861, 1566.074 580.604 C 1566.993 580.303, 1618.003 635.932, 1709.483 737 C 1787.573 823.276, 1851.698 893.557, 1851.983 893.181 C 1852.267 892.806, 1854.750 891.403, 1857.500 890.065 C 1874.507 881.787, 1904.206 861.223, 1923.700 844.227 C 1953.319 818.403, 1966.597 777.417, 1958.923 735.500 C 1957.816 729.450, 1956.657 721.575, 1956.348 718 C 1955.857 712.312, 1956.062 711.152, 1957.992 708.717 C 1960.464 705.597, 1966.781 702.165, 1975 699.478 C 1985.312 696.107, 2004.476 687.851, 2017.500 681.171 C 2050.342 664.325, 2084.590 636.301, 2104.280 610.162 C 2131.463 574.077, 2149.392 525.646, 2155.057 473 C 2156.498 459.611, 2156.490 425.214, 2155.043 413.500 C 2151.625 385.820, 2129.453 308.447, 2121.985 298.138 C 2117.002 291.259, 2107.715 288.974, 2101.340 293.058" stroke="none" fill="#fc7a24" fill-rule="evenodd"/><path d="M 124.500 297.851 C 115.387 303.452, 103.634 338.774, 93.070 392.305 C 82.731 444.693, 79.693 478.126, 81.920 515 C 84.711 561.204, 92.377 601.317, 106.190 642 C 119.513 681.237, 137.112 710.429, 161.701 734.077 C 181.962 753.563, 195.993 763.099, 226.841 778.351 C 248.303 788.963, 255.049 793.120, 257.476 797.228 C 259.318 800.346, 259.322 800.387, 261.473 832.500 C 262.596 849.264, 263.409 855.315, 265.502 862.500 C 271.999 884.802, 287.903 910.267, 309.481 932.918 C 327.795 952.143, 373.567 982.025, 405.891 995.857 C 439.251 1010.133, 467.700 1016.781, 505.090 1019.041 C 525.932 1020.300, 529.615 1019.993, 555.780 1014.813 C 566.934 1012.605, 577.136 1011.068, 578.450 1011.398 C 582.349 1012.377, 589.426 1020.328, 592.925 1027.659 C 597.694 1037.653, 603.943 1045.904, 615.895 1057.984 C 628.646 1070.871, 636.243 1076.584, 649.468 1083.229 C 702.374 1109.810, 776.436 1119.615, 851.611 1109.992 C 899.541 1103.856, 944.345 1089.442, 972.944 1070.958 C 978.738 1067.213, 980.055 1065.088, 978.235 1062.425 C 977.831 1061.835, 973.225 1058.962, 968 1056.043 C 946.250 1043.890, 937 1036.428, 937 1031.035 C 937 1023.470, 945.354 1017.976, 1011.500 982.038 C 1126.781 919.404, 1118.420 924.212, 1118.804 920.333 C 1119.092 917.419, 1118.575 916.934, 1108.804 910.944 C 1060.362 881.248, 1003.887 841.596, 963.500 808.923 C 940.605 790.401, 928.159 779.443, 911.500 763.140 C 885.448 737.645, 832.520 675.215, 788.288 617.809 C 771.147 595.563, 769.344 593.502, 761.360 587.047 C 742.542 571.829, 734.567 569.573, 678 563.475 C 615.651 556.752, 554.434 544.986, 516.500 532.434 C 463.131 514.775, 365.035 467.583, 298.500 427.559 C 272.679 412.027, 233.358 385.773, 220.283 375.337 C 201.806 360.588, 178.712 339.679, 158.017 318.962 C 135.007 295.928, 131.363 293.633, 124.500 297.851 M 1128.660 545.048 C 1116.670 547.060, 1099.584 554.046, 1091 560.446 C 1074.110 573.039, 1062.169 591.705, 1055.981 615.188 C 1048.031 645.358, 1044.641 671.519, 1044.668 702.500 C 1044.694 731.755, 1047.387 752.317, 1054.581 778.193 C 1061.150 801.820, 1077.648 826.053, 1098.784 843.124 C 1112.758 854.411, 1127.080 862.888, 1160.249 879.506 C 1203.386 901.119, 1210.185 905.136, 1225.500 918.064 C 1248.544 937.515, 1262.945 966.214, 1264.714 996.212 C 1266.161 1020.749, 1258.415 1039.970, 1238.803 1060.511 C 1213.031 1087.505, 1187.275 1101.324, 1152.765 1106.673 C 1144.498 1107.954, 1135.379 1108.421, 1118.500 1108.428 C 1094.664 1108.437, 1080.537 1107.042, 1041.727 1100.845 C 1024.039 1098.020, 1022.819 1098.718, 1031.500 1106.692 C 1051.519 1125.082, 1087.815 1142.610, 1123 1150.881 C 1145.192 1156.098, 1148.957 1156.500, 1175.500 1156.493 C 1203.336 1156.486, 1208.905 1155.835, 1240.944 1148.841 C 1264.275 1143.747, 1274.448 1140.443, 1289.618 1133.029 C 1330.159 1113.215, 1353.828 1077.172, 1364.648 1018.777 C 1367.017 1005.991, 1367.019 978.946, 1364.652 966 C 1360.884 945.393, 1350.839 922.280, 1338.517 905.861 C 1330.311 894.927, 1314.682 879.997, 1303.968 872.857 C 1281.385 857.806, 1250.575 845.794, 1194.135 830.035 C 1165.590 822.065, 1146.754 816.108, 1138.361 812.396 C 1129.294 808.386, 1113.057 797.191, 1105.973 790.066 C 1098.512 782.560, 1094.092 774.769, 1091.183 764 C 1083.297 734.796, 1084.212 715.391, 1094.461 694.500 C 1103.497 676.081, 1113.564 667.612, 1126.393 667.636 C 1134.959 667.652, 1142.112 670.275, 1146.333 674.947 C 1150.032 679.041, 1150.530 680.536, 1151.907 691.675 C 1153.408 703.822, 1159.165 711.950, 1169.969 717.179 C 1173.421 718.849, 1176.405 719.387, 1182.500 719.436 C 1186.900 719.471, 1191.195 719.212, 1192.045 718.860 C 1193.422 718.290, 1193.332 716.170, 1191.220 699.360 C 1189.533 685.931, 1188.806 674.741, 1188.694 660.500 L 1188.536 640.500 1192.981 628 C 1197.243 616.018, 1197.428 615.023, 1197.463 604 C 1197.504 591.359, 1196.115 586.563, 1188.855 574.257 C 1183.575 565.308, 1170.710 552.853, 1163 549.226 C 1152.714 544.387, 1141.052 542.968, 1128.660 545.048 M 1556.674 589.740 C 1507.574 641.869, 1477.143 670.702, 1425 714.502 C 1413.725 723.973, 1395.500 739.704, 1384.500 749.461 C 1356.976 773.873, 1337.974 788.989, 1319.046 801.531 C 1310.206 807.388, 1302.530 813.010, 1301.987 814.024 C 1300.710 816.411, 1300.719 822.606, 1302.003 825.006 C 1302.555 826.037, 1311.667 831.145, 1322.253 836.357 C 1332.839 841.570, 1345.589 848.572, 1350.586 851.918 C 1396.043 882.352, 1421.615 924.190, 1426.951 976.856 C 1428.625 993.386, 1428.365 1002.668, 1425.461 1030.035 C 1424.808 1036.189, 1424.928 1036.760, 1427.503 1039.821 C 1433.964 1047.500, 1457.588 1055.702, 1480.356 1058.172 C 1518.727 1062.333, 1587.457 1043.794, 1624.191 1019.373 C 1628.180 1016.721, 1635.069 1010.940, 1639.501 1006.526 C 1657.532 988.565, 1665.598 973.870, 1672.061 947.204 C 1673.870 939.738, 1675.884 939.124, 1710.500 935.484 C 1758.648 930.421, 1798.311 919.415, 1838.845 899.869 L 1851.189 893.916 1847.845 889.961 C 1838.780 879.243, 1567.387 580.128, 1566.674 580.068 C 1566.220 580.031, 1561.720 584.383, 1556.674 589.740" stroke="none" fill="#f73e24" fill-rule="evenodd"/></svg>